<?xml version="1.0" encoding="utf-8"?>
<!-- Generator: Adobe Illustrator 17.0.0, SVG Export Plug-In . SVG Version: 6.00 Build 0)  -->
<!DOCTYPE svg PUBLIC "-//W3C//DTD SVG 1.1//EN" "http://www.w3.org/Graphics/SVG/1.1/DTD/svg11.dtd">
<svg version="1.1" id="Capa_1" xmlns="http://www.w3.org/2000/svg" xmlns:xlink="http://www.w3.org/1999/xlink" x="0px" y="0px"
	 width="48px" height="48px" viewBox="0 0 48 48" enable-background="new 0 0 48 48" xml:space="preserve">
<g>
	<path id="XMLID_21_" fill="#1C254D" d="M46.37,24.023c0,12.456-10.097,22.557-22.559,22.557c-12.456,0-22.555-10.101-22.555-22.557
		c0-12.456,10.099-22.557,22.555-22.557C36.273,1.467,46.37,11.568,46.37,24.023z"/>
	<path id="XMLID_19_" fill="#FFFFFF" d="M25.8,18.678v-2.136c0-1.04,0.695-1.285,1.179-1.285c0.488,0,3,0,3,0v-4.574l-4.128-0.02
		c-4.582,0-5.622,3.415-5.622,5.602v2.413h-2.65v3.229v2.116h2.674c0,6.057,0,13.36,0,13.36h5.341c0,0,0-7.379,0-13.36h3.967
		l0.191-2.1l0.295-3.245H25.8z"/>
</g>
<g>
	<circle id="XMLID_41_" fill="#B12518" cx="205.202" cy="57.361" r="11.057"/>
	<path fill="#FFFFFF" d="M211.619,54.63c0,0-0.125-0.942-0.518-1.355c-0.499-0.544-1.057-0.547-1.313-0.578
		c-1.835-0.138-4.582-0.138-4.582-0.138h-0.007c0,0-2.75,0-4.582,0.138c-0.255,0.031-0.814,0.034-1.313,0.578
		c-0.393,0.412-0.521,1.356-0.521,1.356s-0.13,1.104-0.13,2.21v0.132v0.903c0,1.106,0.13,2.212,0.13,2.212s0.128,0.94,0.521,1.354
		c0.498,0.544,1.154,0.527,1.445,0.584c1.046,0.106,4.452,0.139,4.452,0.139s2.751-0.008,4.586-0.145
		c0.256-0.031,0.813-0.034,1.313-0.578c0.393-0.413,0.518-1.354,0.518-1.354s0.132-1.105,0.132-2.212v-0.845v-0.19
		C211.751,55.734,211.619,54.63,211.619,54.63z M207.388,57.221l-3.536,1.912l-0.002-2.942v-0.896l1.596,0.87L207.388,57.221z"/>
</g>
<g>
	<circle id="XMLID_49_" fill="#6196CD" cx="152.16" cy="56.395" r="11.056"/>
	<path id="XMLID_47_" fill="#FFFFFF" d="M158.707,53.023c-0.48,0.209-0.998,0.352-1.543,0.415c0.557-0.327,0.982-0.845,1.184-1.464
		c-0.521,0.303-1.095,0.525-1.707,0.643c-0.49-0.514-1.188-0.835-1.964-0.835c-1.482,0-2.686,1.185-2.686,2.646
		c0,0.207,0.023,0.408,0.069,0.603c-2.233-0.111-4.213-1.163-5.538-2.765c-0.23,0.391-0.364,0.846-0.364,1.33
		c0,0.917,0.477,1.727,1.197,2.201c-0.441-0.014-0.855-0.133-1.217-0.33c0,0.011,0,0.023,0,0.032c0,0.339,0.063,0.661,0.182,0.96
		c0.328,0.828,1.068,1.455,1.974,1.635c-0.227,0.06-0.465,0.094-0.708,0.094c-0.173,0-0.342-0.018-0.508-0.049
		c0.345,1.05,1.336,1.816,2.511,1.836c-0.92,0.711-2.077,1.133-3.338,1.133c-0.218,0-0.429-0.012-0.642-0.035
		c1.191,0.75,2.604,1.188,4.119,1.188c4.2,0,6.783-2.91,7.464-5.93c0.119-0.533,0.183-1.07,0.183-1.596
		c0-0.114-0.002-0.229-0.007-0.342C157.893,54.02,158.348,53.554,158.707,53.023z"/>
</g>
<g>
	
		<linearGradient id="XMLID_2_" gradientUnits="userSpaceOnUse" x1="-361.175" y1="-302.653" x2="-341.4678" y2="-287.045" gradientTransform="matrix(-1 0 0 -1 -173.2129 -238.4316)">
		<stop  offset="0" style="stop-color:#E5B95D"/>
		<stop  offset="0.3273" style="stop-color:#C1303F"/>
		<stop  offset="0.6485" style="stop-color:#89398A"/>
		<stop  offset="1" style="stop-color:#4A4892"/>
	</linearGradient>
	<circle id="XMLID_6_" fill="url(#XMLID_2_)" cx="178.54" cy="56.76" r="11.07"/>
	<g>
		<path fill-rule="evenodd" clip-rule="evenodd" fill="#FFFFFF" d="M182.416,56.76c0-2.143-1.735-3.878-3.877-3.878
			c-2.142,0-3.877,1.735-3.877,3.878c0,2.141,1.735,3.875,3.877,3.875C180.681,60.635,182.416,58.9,182.416,56.76L182.416,56.76z
			 M182.344,52.355c-0.347,0-0.626,0.281-0.626,0.624c0,0.346,0.279,0.624,0.626,0.624c0.343,0,0.624-0.278,0.624-0.624
			C182.968,52.637,182.686,52.355,182.344,52.355L182.344,52.355z M175.371,51.459h6.337c1.174,0,2.131,0.959,2.131,2.131v6.339
			c0,1.173-0.957,2.13-2.131,2.13h-6.337c-1.173,0-2.131-0.957-2.131-2.13V53.59C173.24,52.418,174.198,51.459,175.371,51.459
			L175.371,51.459z M181.708,50.749h-6.337c-1.561,0-2.842,1.279-2.842,2.841v6.339c0,1.563,1.28,2.842,2.842,2.842h6.337
			c1.565,0,2.842-1.278,2.842-2.842V53.59C184.55,52.028,183.273,50.749,181.708,50.749L181.708,50.749z M175.467,56.76
			c0-1.697,1.378-3.072,3.072-3.072c1.697,0,3.071,1.375,3.071,3.072c0,1.695-1.374,3.072-3.071,3.072
			C176.845,59.832,175.467,58.455,175.467,56.76L175.467,56.76z"/>
	</g>
</g>
</svg>
