<?xml version="1.0" encoding="utf-8"?>
<!-- Generator: Adobe Illustrator 17.0.0, SVG Export Plug-In . SVG Version: 6.00 Build 0)  -->
<!DOCTYPE svg PUBLIC "-//W3C//DTD SVG 1.1//EN" "http://www.w3.org/Graphics/SVG/1.1/DTD/svg11.dtd">
<svg version="1.1" id="Capa_1" xmlns="http://www.w3.org/2000/svg" xmlns:xlink="http://www.w3.org/1999/xlink" x="0px" y="0px"
	 width="52px" height="50px" viewBox="0 0 52 50" enable-background="new 0 0 52 50" xml:space="preserve">
<g>
	<path fill="#2A325A" d="M26.247,1.505c-6.952,0-13.213,3.003-17.562,7.778C4.846,13.502,2.5,19.11,2.5,25.253
		C2.5,38.349,13.151,49,26.247,49c6.144,0,11.751-2.346,15.972-6.19c4.774-4.345,7.775-10.606,7.775-17.558
		C49.995,12.159,39.341,1.505,26.247,1.505z M39.957,40.553c-3.27,2.934-7.482,4.838-12.124,5.195v-3.092
		c0-0.871-0.715-1.586-1.586-1.586c-0.873,0-1.586,0.715-1.586,1.586v3.092c-0.536-0.041-1.064-0.109-1.586-0.187
		c-8.804-1.372-15.766-8.332-17.135-17.135c-0.082-0.524-0.148-1.05-0.189-1.588h3.092c0.871,0,1.586-0.713,1.586-1.586
		c0-0.871-0.715-1.586-1.586-1.586H5.752c0.355-4.643,2.262-8.856,5.197-12.126c3.433-3.827,8.277-6.366,13.712-6.781v3.092
		c0,0.871,0.713,1.584,1.586,1.584c0.871,0,1.586-0.713,1.586-1.584V6.534V4.759c10.078,0.772,18.133,8.829,18.91,18.908h-1.777
		h-1.315c-0.873,0-1.588,0.715-1.588,1.586c0,0.873,0.715,1.586,1.588,1.586h3.092C46.324,32.274,43.787,37.118,39.957,40.553z"/>
	<path fill="#2A325A" d="M42.924,17.652c-0.187-0.396-0.664-0.563-1.056-0.374L28.16,23.852c-0.431-0.592-1.124-0.978-1.913-0.978
		c-0.924,0-1.717,0.532-2.112,1.302l-7.473-2.145c-0.423-0.123-0.861,0.121-0.982,0.542c-0.121,0.419,0.121,0.859,0.542,0.982
		l6.535,1.876l1.169,0.335c0.234,1.068,1.183,1.865,2.321,1.865c0.236,0,0.46-0.045,0.674-0.109c0.618-0.185,1.124-0.61,1.42-1.171
		c0.15-0.29,0.251-0.61,0.271-0.955l12.743-6.114l1.198-0.573C42.946,18.519,43.115,18.044,42.924,17.652z"/>
</g>
</svg>
