<?xml version="1.0" encoding="utf-8"?>
<!-- Generator: Adobe Illustrator 17.0.0, SVG Export Plug-In . SVG Version: 6.00 Build 0)  -->
<!DOCTYPE svg PUBLIC "-//W3C//DTD SVG 1.1//EN" "http://www.w3.org/Graphics/SVG/1.1/DTD/svg11.dtd">
<svg version="1.1" id="Capa_1" xmlns="http://www.w3.org/2000/svg" xmlns:xlink="http://www.w3.org/1999/xlink" x="0px" y="0px"
	 width="52px" height="50px" viewBox="0 0 52 50" enable-background="new 0 0 52 50" xml:space="preserve">
<g>
	<circle fill="#2A325A" cx="25.152" cy="17.847" r="5.291"/>
	<path fill="#2A325A" d="M29.927,43.381c-1.214,1.284-2.264,2.305-2.992,2.99c-0.506,0.475-1.115,0.727-1.764,0.727
		c-0.469,0-1.177-0.138-1.871-0.794c-0.714-0.675-1.735-1.671-2.92-2.922c-2.523,0.527-4.202,1.463-4.202,2.531
		c0,1.653,4.019,2.992,8.974,2.992c4.958,0,8.974-1.34,8.974-2.992C34.127,44.844,32.449,43.91,29.927,43.381z"/>
	<path fill="#2A325A" d="M22.226,43.085c0,0,0,0,0.002,0c0.105,0.107,0.206,0.214,0.307,0.317c0.016,0.016,0.033,0.033,0.049,0.049
		c0.08,0.082,0.158,0.161,0.237,0.241c0.025,0.025,0.047,0.049,0.074,0.072c0.072,0.074,0.144,0.146,0.214,0.216
		c0.021,0.019,0.037,0.037,0.058,0.056c0.177,0.177,0.343,0.342,0.5,0.494c0.02,0.021,0.043,0.041,0.064,0.06
		c0.054,0.054,0.107,0.105,0.158,0.154c0.025,0.025,0.051,0.049,0.076,0.072c0.049,0.047,0.095,0.093,0.14,0.134
		c0.023,0.023,0.043,0.043,0.066,0.064c0.062,0.06,0.121,0.117,0.181,0.173c0.066,0.06,0.132,0.113,0.2,0.158
		c0.021,0.017,0.043,0.027,0.064,0.041c0.043,0.029,0.089,0.058,0.136,0.076c0.025,0.012,0.054,0.019,0.082,0.031
		c0.037,0.014,0.076,0.031,0.117,0.041c0.031,0.008,0.058,0.008,0.087,0.012c0.039,0.004,0.076,0.012,0.115,0.012
		c0.006,0,0.012,0.004,0.019,0.004c0.031,0,0.06-0.008,0.089-0.01c0.027-0.002,0.056-0.004,0.082-0.008
		c0.037-0.008,0.074-0.021,0.111-0.033c0.025-0.008,0.051-0.014,0.074-0.023c0.041-0.019,0.082-0.041,0.121-0.066
		c0.021-0.012,0.041-0.021,0.06-0.033c0.058-0.039,0.117-0.086,0.173-0.138c0.06-0.056,0.126-0.117,0.189-0.179
		c0.014-0.012,0.029-0.027,0.043-0.041c0.058-0.054,0.117-0.111,0.181-0.171c0.01-0.01,0.021-0.023,0.033-0.035
		c0.232-0.222,0.496-0.478,0.784-0.764c0.002-0.002,0.006-0.006,0.01-0.01c0.286-0.284,0.597-0.597,0.928-0.938
		c0.008-0.008,0.019-0.019,0.027-0.029l0,0c4.692-4.836,13.378-15.107,13.378-24.872c0-9.326-7.663-16.887-16.303-16.887
		c-8.641,0-16.302,7.561-16.302,16.887C8.85,27.978,17.534,38.249,22.226,43.085L22.226,43.085z M16.38,17.847
		c0-4.844,3.926-8.771,8.773-8.771c4.844,0,8.771,3.926,8.771,8.771c0,4.846-3.926,8.775-8.771,8.775
		C20.306,26.622,16.38,22.693,16.38,17.847z"/>
</g>
</svg>
