<?xml version="1.0" encoding="utf-8"?>
<!-- Generator: Adobe Illustrator 17.0.0, SVG Export Plug-In . SVG Version: 6.00 Build 0)  -->
<!DOCTYPE svg PUBLIC "-//W3C//DTD SVG 1.1//EN" "http://www.w3.org/Graphics/SVG/1.1/DTD/svg11.dtd">
<svg version="1.1" id="Capa_1" xmlns="http://www.w3.org/2000/svg" xmlns:xlink="http://www.w3.org/1999/xlink" x="0px" y="0px"
	 width="52px" height="50px" viewBox="0 0 52 50" enable-background="new 0 0 52 50" xml:space="preserve">
<g>
	<path fill="#2A325A" d="M20.426,17.963c0.484-0.479,1.167-1.311,1.525-2.185c1.232-3.022,0.669-3.607,0.669-3.607
		c-0.809-1.748-2.545-4.079-4.832-6.373c-2.294-2.292-4.627-4.021-6.37-4.83c0,0-2.838-0.874-4.964,1.262
		c-0.014-0.005,0,0-0.021,0.021C6.43,2.256,6.426,2.256,6.421,2.256l0.005,0.005c-0.293,0.293-0.565,0.59-0.818,0.881L20.426,17.963
		z"/>
	<path fill="#2A325A" d="M50.627,40.177c-0.809-1.745-2.543-4.077-4.834-6.371c-2.29-2.291-4.625-4.023-6.368-4.832
		c0,0-0.586-0.565-3.609,0.669c-0.872,0.358-1.704,1.044-2.185,1.52l14.821,14.824c0.293-0.256,0.586-0.525,0.883-0.818h0.005
		c0,0,0-0.005,0.002-0.009c0.023-0.023,0.025-0.012,0.023-0.023C51.501,43.008,50.627,40.177,50.627,40.177z"/>
	<path fill="#2A325A" d="M32.047,33.293c-0.47,0.63-1.211,0.888-2.096,0.888c-2.701,0-6.736-2.415-8.43-4.107
		c-2.252-2.252-5.769-8.63-3.219-10.526c0.144-0.088,0.288-0.181,0.437-0.277L4.311,4.845c-2.176,3.3-2.085,5.934-2.085,5.934
		S1.849,22.755,15.346,36.25c12.783,12.783,24.199,13.12,25.371,13.12c0.065,0,0.1,0,0.1,0s0.014,0,0.044,0
		c0.356,0,2.835-0.077,5.887-2.087L32.322,32.856C32.226,33.003,32.131,33.149,32.047,33.293z"/>
</g>
</svg>
