<?xml version="1.0" encoding="utf-8"?>
<!-- Generator: Adobe Illustrator 17.0.0, SVG Export Plug-In . SVG Version: 6.00 Build 0)  -->
<!DOCTYPE svg PUBLIC "-//W3C//DTD SVG 1.1//EN" "http://www.w3.org/Graphics/SVG/1.1/DTD/svg11.dtd">
<svg version="1.1" id="Capa_1" xmlns="http://www.w3.org/2000/svg" xmlns:xlink="http://www.w3.org/1999/xlink" x="0px" y="0px"
	 width="48px" height="48px" viewBox="0 0 48 48" enable-background="new 0 0 48 48" xml:space="preserve">
<g>
	<circle id="XMLID_41_" fill="#B12518" cx="205.202" cy="57.361" r="11.057"/>
	<path fill="#FFFFFF" d="M211.619,54.63c0,0-0.125-0.942-0.518-1.355c-0.499-0.544-1.057-0.547-1.313-0.578
		c-1.835-0.138-4.582-0.138-4.582-0.138h-0.007c0,0-2.75,0-4.582,0.138c-0.255,0.031-0.814,0.034-1.313,0.578
		c-0.393,0.412-0.521,1.356-0.521,1.356s-0.13,1.104-0.13,2.21v0.132v0.903c0,1.106,0.13,2.212,0.13,2.212s0.128,0.94,0.521,1.354
		c0.498,0.544,1.154,0.527,1.445,0.584c1.046,0.106,4.452,0.139,4.452,0.139s2.751-0.008,4.586-0.145
		c0.256-0.031,0.813-0.034,1.313-0.578c0.393-0.413,0.518-1.354,0.518-1.354s0.132-1.105,0.132-2.212v-0.845v-0.19
		C211.751,55.734,211.619,54.63,211.619,54.63z M207.388,57.221l-3.536,1.912l-0.002-2.942v-0.896l1.596,0.87L207.388,57.221z"/>
</g>
<g>
	<path id="XMLID_49_" fill="#6196CD" d="M46.778,24.135c0,12.64-10.244,22.893-22.885,22.893C11.247,47.028,1,36.776,1,24.135
		C1,11.493,11.247,1.244,23.893,1.244C36.533,1.244,46.778,11.493,46.778,24.135z"/>
	<path id="XMLID_47_" fill="#FFFFFF" d="M37.443,17.154c-0.993,0.433-2.066,0.728-3.194,0.859c1.152-0.677,2.034-1.749,2.45-3.031
		c-1.078,0.627-2.267,1.088-3.534,1.33c-1.015-1.064-2.461-1.729-4.066-1.729c-3.067,0-5.56,2.453-5.56,5.477
		c0,0.429,0.048,0.845,0.143,1.248c-4.624-0.231-8.722-2.408-11.466-5.724c-0.475,0.809-0.754,1.751-0.754,2.754
		c0,1.899,0.987,3.575,2.479,4.557c-0.912-0.028-1.771-0.275-2.519-0.683c0,0.022,0,0.048,0,0.067c0,0.702,0.129,1.369,0.376,1.988
		c0.679,1.714,2.212,3.013,4.086,3.385c-0.469,0.123-0.962,0.194-1.466,0.194c-0.358,0-0.708-0.036-1.051-0.101
		c0.714,2.173,2.766,3.761,5.198,3.801c-1.905,1.472-4.301,2.345-6.911,2.345c-0.451,0-0.888-0.024-1.328-0.073
		c2.467,1.553,5.39,2.459,8.528,2.459c8.696,0,14.044-6.025,15.453-12.277c0.247-1.104,0.378-2.216,0.378-3.304
		c0-0.237-0.004-0.473-0.014-0.708C35.757,19.216,36.699,18.252,37.443,17.154z"/>
</g>
<g>
	
		<linearGradient id="XMLID_2_" gradientUnits="userSpaceOnUse" x1="-361.175" y1="-302.653" x2="-341.4678" y2="-287.045" gradientTransform="matrix(-1 0 0 -1 -173.2129 -238.4316)">
		<stop  offset="0" style="stop-color:#E5B95D"/>
		<stop  offset="0.3273" style="stop-color:#C1303F"/>
		<stop  offset="0.6485" style="stop-color:#89398A"/>
		<stop  offset="1" style="stop-color:#4A4892"/>
	</linearGradient>
	<circle id="XMLID_6_" fill="url(#XMLID_2_)" cx="178.54" cy="56.76" r="11.07"/>
	<g>
		<path fill-rule="evenodd" clip-rule="evenodd" fill="#FFFFFF" d="M182.416,56.76c0-2.143-1.735-3.878-3.877-3.878
			c-2.142,0-3.877,1.735-3.877,3.878c0,2.141,1.735,3.875,3.877,3.875C180.681,60.635,182.416,58.9,182.416,56.76L182.416,56.76z
			 M182.344,52.355c-0.347,0-0.626,0.281-0.626,0.624c0,0.346,0.279,0.624,0.626,0.624c0.343,0,0.624-0.278,0.624-0.624
			C182.968,52.637,182.686,52.355,182.344,52.355L182.344,52.355z M175.371,51.459h6.337c1.174,0,2.131,0.959,2.131,2.131v6.339
			c0,1.173-0.957,2.13-2.131,2.13h-6.337c-1.173,0-2.131-0.957-2.131-2.13V53.59C173.24,52.418,174.198,51.459,175.371,51.459
			L175.371,51.459z M181.708,50.749h-6.337c-1.561,0-2.842,1.279-2.842,2.841v6.339c0,1.563,1.28,2.842,2.842,2.842h6.337
			c1.565,0,2.842-1.278,2.842-2.842V53.59C184.55,52.028,183.273,50.749,181.708,50.749L181.708,50.749z M175.467,56.76
			c0-1.697,1.378-3.072,3.072-3.072c1.697,0,3.071,1.375,3.071,3.072c0,1.695-1.374,3.072-3.071,3.072
			C176.845,59.832,175.467,58.455,175.467,56.76L175.467,56.76z"/>
	</g>
</g>
</svg>
