<?xml version="1.0" encoding="utf-8"?>
<!-- Generator: Adobe Illustrator 17.0.0, SVG Export Plug-In . SVG Version: 6.00 Build 0)  -->
<!DOCTYPE svg PUBLIC "-//W3C//DTD SVG 1.1//EN" "http://www.w3.org/Graphics/SVG/1.1/DTD/svg11.dtd">
<svg version="1.1" id="Capa_1" xmlns="http://www.w3.org/2000/svg" xmlns:xlink="http://www.w3.org/1999/xlink" x="0px" y="0px"
	 width="48px" height="48px" viewBox="0 0 48 48" enable-background="new 0 0 48 48" xml:space="preserve">
<g>
	<circle id="XMLID_41_" fill="#B12518" cx="24.152" cy="24.154" r="22.848"/>
	<path fill="#FFFFFF" d="M37.412,18.509c0,0-0.258-1.947-1.071-2.799c-1.031-1.124-2.184-1.13-2.712-1.195
		c-3.792-0.285-9.469-0.285-9.469-0.285h-0.014c0,0-5.683,0-9.469,0.285c-0.527,0.064-1.683,0.07-2.712,1.195
		c-0.811,0.852-1.076,2.801-1.076,2.801s-0.268,2.28-0.268,4.567v0.273v1.867c0,2.286,0.268,4.571,0.268,4.571
		s0.264,1.943,1.076,2.797c1.029,1.124,2.385,1.09,2.987,1.207c2.161,0.218,9.2,0.287,9.2,0.287s5.685-0.016,9.477-0.299
		c0.529-0.064,1.681-0.07,2.712-1.195c0.813-0.854,1.071-2.797,1.071-2.797s0.273-2.284,0.273-4.571v-1.746v-0.394
		C37.685,20.792,37.412,18.509,37.412,18.509z M28.668,23.863l-7.307,3.951l-0.004-6.08v-1.851l3.297,1.798L28.668,23.863z"/>
</g>
</svg>
